<?xml version="1.0" encoding="UTF-8"?>
<svg xmlns="http://www.w3.org/2000/svg" viewBox="0 0 512 512">
  <!-- Pine cone SVG created for Pine Time App -->
  <path fill="#5D4037" d="M256,40c0,0-25,30-25,40c0,10,50,10,50,0C281,70,256,40,256,40z"/>
  <path fill="#4E342E" d="M281,80c0,10-50,10-50,0c0-10,25-40,25-40S281,70,281,80z"/>
  <path fill="#795548" d="M221,90c-10,0-30,20-30,40c0,20,20,30,30,30c10,0,20-10,40-10s30,10,40,10c10,0,30-10,30-30c0-20-20-40-30-40
    c-10,0-20,10-40,10S231,90,221,90z"/>
  <path fill="#5D4037" d="M201,130c-10,10-20,30-20,50c0,20,10,30,20,40c10,10,30,10,50,10c20,0,30-10,40-10s20,10,40,10
    c20,0,40,0,50-10c10-10,20-20,20-40c0-20-10-40-20-50c-10-10-30-10-50-10c-20,0-30,10-40,10s-20-10-40-10
    C231,120,211,120,201,130z"/>
  <path fill="#4E342E" d="M192,220c-15,15-21,40-21,70c0,30,6,55,21,70c15,15,42,15,73,15c31,0,46-15,61-15s30,15,61,15
    c31,0,58,0,73-15c15-15,21-40,21-70c0-30-6-55-21-70c-15-15-42-15-73-15c-31,0-46,15-61,15s-30-15-61-15
    C234,205,207,205,192,220z"/>
  <path fill="#3E2723" d="M171,330c-20,20-35,60-35,100c0,36,15,46,35,66c20,20,56,16,96,16c40,0,60-16,80-16s40,16,80,16
    c40,0,76,4,96-16c20-20,35-30,35-66c0-40-15-80-35-100c-20-20-56-16-96-16c-40,0-60,16-80,16s-40-16-80-16
    C227,314,191,310,171,330z"/>
</svg>
